<?xml version="1.0" encoding="UTF-8" standalone="no"?><!DOCTYPE svg PUBLIC "-//W3C//DTD SVG 1.1//EN" "http://www.w3.org/Graphics/SVG/1.1/DTD/svg11.dtd"><svg width="100%" height="100%" viewBox="0 0 2700 1800" version="1.1" xmlns="http://www.w3.org/2000/svg" xmlns:xlink="http://www.w3.org/1999/xlink" xml:space="preserve" xmlns:serif="http://www.serif.com/" style="fill-rule:evenodd;clip-rule:evenodd;stroke-linejoin:round;stroke-miterlimit:2;"><path d="M574.003,1437.52l0,-1128.299c0,-36.694 29.151,-66.485 65.056,-66.485l253.678,0c92.331,0 53.343,117.088 117.143,117.088l1105.798,0c64.668,0 117.171,53.655 117.171,119.744l0,957.951c0,66.088 -52.503,119.744 -117.171,119.744l-1424.504,0c-64.668,0 -117.171,-53.655 -117.171,-119.744Z" style="fill:#6492a6;"/><path d="M467.151,1444.068l0,-1066.601c0,-34.687 29.791,-62.849 66.485,-62.849l259.248,0c94.359,0 54.514,110.686 119.715,110.686l1130.081,0c66.088,0 119.744,50.721 119.744,113.196l0,905.568c0,62.475 -53.655,113.196 -119.744,113.196l-1455.785,0c-66.088,0 -119.744,-50.721 -119.744,-113.196Z" style="fill:#b2d6e6;"/><path d="M1886.661,698.382l0,247.798c0,32.18 -26.126,58.305 -58.305,58.305l-247.798,0c-32.18,0 -58.305,-26.126 -58.305,-58.305l0,-247.798c0,-32.18 26.126,-58.305 58.305,-58.305l247.798,0c32.18,0 58.305,26.126 58.305,58.305Z" style="fill:#47b1df;"/><path d="M1459.039,699.541l0,247.798c0,32.18 -26.126,58.305 -58.305,58.305l-585.028,0c-32.18,0 -58.305,-26.126 -58.305,-58.305l0,-247.798c0,-32.18 26.126,-58.305 58.305,-58.305l585.028,0c32.18,0 58.305,26.126 58.305,58.305Z" style="fill:#35b394;"/><path d="M1107.323,1106.583l0,247.798c0,32.18 -26.126,58.305 -58.305,58.305l-247.798,0c-32.18,0 -58.305,-26.126 -58.305,-58.305l0,-247.798c0,-32.18 26.126,-58.305 58.305,-58.305l247.798,0c32.18,0 58.305,26.126 58.305,58.305Z" style="fill:#1e7195;"/><path d="M1886.661,1106.583l0,247.798c0,32.18 -26.126,58.305 -58.305,58.305l-585.028,0c-32.18,0 -58.305,-26.126 -58.305,-58.305l0,-247.798c0,-32.18 26.126,-58.305 58.305,-58.305l585.028,0c32.18,0 58.305,26.126 58.305,58.305Z" style="fill:#5da6ff;"/></svg>